<svg width="543" height="355" viewBox="0 0 543 355" fill="none" xmlns="http://www.w3.org/2000/svg">
<path d="M6 62H37V49.5V43V37H31V47V57H0V354.5L6 349.5V62Z" fill="url(#paint0_linear_49_358)"/>
<path d="M537 62H506V49.5V43V37H512V47V57H543V354.5L537 349.5V62Z" fill="url(#paint1_linear_49_358)"/>
<path d="M62 7L62 36.5L49.5 36.5H37V31.5L57 31.5L57 1L480 1V7L62 7Z" fill="#DF8D36" stroke="#DF8D36"/>
<path d="M481 7V36.5L493.5 36.5H506V31.5L486 31.5V1L63 1V7L481 7Z" fill="#DF8D36" stroke="#DF8D36"/>
<path fill-rule="evenodd" clip-rule="evenodd" d="M6 6V37H37V6H6ZM12 31V12H31V31H12Z" fill="#E1903A"/>
<path fill-rule="evenodd" clip-rule="evenodd" d="M506 6V37H537V6H506ZM512 31V12H531V31H512Z" fill="#E1903A"/>
<defs>
<linearGradient id="paint0_linear_49_358" x1="18" y1="37" x2="18" y2="354.5" gradientUnits="userSpaceOnUse">
<stop stop-color="#DF8D36"/>
<stop offset="1" stop-color="#DF8D36" stop-opacity="0"/>
</linearGradient>
<linearGradient id="paint1_linear_49_358" x1="525" y1="37" x2="525" y2="354.5" gradientUnits="userSpaceOnUse">
<stop stop-color="#DF8D36"/>
<stop offset="1" stop-color="#DF8D36" stop-opacity="0"/>
</linearGradient>
</defs>
</svg>
