<svg width="105" height="103" viewBox="0 0 105 103" fill="none" xmlns="http://www.w3.org/2000/svg">
<g clip-path="url(#clip0_24_26)">
<path d="M4.32089 37.6577C5.86405 36.9003 6.87938 36.5962 8.46986 36.4221C10.6509 36.1803 13.1146 36.2184 19.1312 36.5711C20.9508 36.6823 22.6857 36.7706 22.9821 36.7798C24.3781 36.824 25.9426 36.6186 29.0119 36.015C31.9029 35.4452 32.6949 35.4173 33.3617 35.8752C33.5044 35.9705 34.7884 36.9096 36.2158 37.957C42.2629 42.3999 46.4014 45.2927 48.4575 46.5117C49.1845 46.9399 49.4194 47.0468 49.7538 47.1071C50.7019 47.2672 51.4935 46.863 53.72 45.0875C54.7356 44.2789 55.7699 43.607 56.1829 43.492C56.6464 43.3666 57.3021 43.031 57.7476 42.6879C58.9718 41.7667 59.9541 40.1983 59.6386 39.6761C59.5969 39.6071 59.2922 39.502 58.7795 39.3814C58.2995 39.268 57.9896 39.1661 57.9895 39.119C57.9953 38.9877 58.461 38.8073 60.0675 38.3074C63.698 37.1766 64.9525 36.728 65.6386 36.3135C66.07 36.0529 66.1672 35.9202 66.0571 35.7379C65.9053 35.4867 65.5872 35.383 63.2895 34.821C62.4082 34.607 61.8033 34.4278 61.8032 34.3808C61.8054 34.3256 62.1039 34.1386 62.8933 33.6953C63.771 33.1987 64.0457 33.0663 64.3458 32.9993C65.2743 32.7746 66.5863 32.762 69.1318 32.9591C71.6313 33.1504 71.9864 33.151 72.2567 32.9877C72.5842 32.7899 72.4064 32.6014 70.8616 31.477C68.6707 29.8822 67.5054 28.7168 67.2893 27.9127C67.2609 27.7953 67.2629 27.552 67.3006 27.3678C67.3384 27.1837 67.3694 26.9766 67.3708 26.9085C67.367 26.7965 67.4019 26.7956 67.7438 26.8917C67.9489 26.9493 68.8986 27.2766 69.8573 27.6187C72.5774 28.5979 73.8712 28.9662 74.5896 28.9692C75.2917 28.9687 75.2232 28.8084 74.1831 28.038C73.7668 27.7247 73.2598 27.3317 73.0509 27.162C72.8471 26.9892 72.3885 26.688 72.0332 26.4992C71.2021 26.0397 71.159 25.9917 71.1489 25.4465C71.1363 24.674 70.9514 23.9922 70.2178 22.0146C69.9944 21.4099 69.8193 20.897 69.8238 20.8809C69.8282 20.8648 69.8773 20.9225 69.9339 21.0161C70.3051 21.6189 72.8517 23.826 75.4635 25.8121C77.5206 27.3734 79.0668 28.3826 79.5595 28.4817C79.7854 28.5268 79.7906 28.5237 79.8432 28.3641C80.0151 27.8501 79.6752 26.6298 78.5991 23.8504C78.1709 22.7306 77.9698 22.1393 77.9823 22.0309C78.0472 21.4806 78.8005 20.5549 79.031 20.725C79.0733 20.7599 79.1218 20.9458 79.1443 21.1474C79.1638 21.3441 79.2651 21.6998 79.3649 21.9354C79.4646 22.171 80.5012 23.9924 81.6665 25.9917C85.003 31.7024 85.9086 33.3541 85.8427 33.6091C85.8368 33.6463 85.7166 33.7526 85.5874 33.8441C85.1092 34.18 84.4043 35.1035 83.4368 36.6496L82.9079 37.5003L81.5896 37.9606C80.8647 38.2169 80.2178 38.4732 80.1488 38.5351C79.1659 39.3979 70.8953 51.556 70.8127 52.2649C70.8031 52.3312 70.8404 52.4634 70.8969 52.557C71.0993 52.892 71.847 53.2136 74.2548 54.0048C74.891 54.2123 75.5628 54.4788 75.7606 54.5947C76.0616 54.776 76.1219 54.8404 76.2417 55.0975C76.3556 55.3448 76.3729 55.5495 76.3596 56.4318C76.3315 58.2643 76.4989 59.34 76.9783 60.4624C77.2181 61.0237 77.4361 61.3963 78.2954 62.76C78.8586 63.657 79.5386 64.7121 79.8013 65.1116C80.5586 66.2477 80.573 66.5417 79.8618 66.3392C79.1179 66.1296 77.9577 65.5596 75.177 64.0455C74.2627 63.5421 73.3499 63.0647 73.1485 62.9779C71.9705 62.4725 69.5212 62.7283 67.288 63.6001C66.3329 63.9686 65.6224 64.5189 64.5908 65.7003C63.6653 66.7637 62.8579 67.8701 60.5757 71.2326C59.3388 73.049 59.1162 73.3382 58.8251 73.514C58.3781 73.7841 58.2434 74.2891 58.4127 75.0744C58.5015 75.4915 58.573 75.6568 58.9956 76.4034C59.8015 77.8195 60.1926 78.1616 61.7987 78.8589C63.4457 79.5652 63.8896 79.9358 64.7951 81.3524C65.3903 82.2906 65.4051 82.3152 65.4329 82.6548C65.4787 83.1651 65.3616 83.5116 64.6252 84.9584C64.2536 85.6939 63.8844 86.5155 63.7874 86.8364C63.6896 87.1442 63.611 87.3665 63.6117 87.3325C63.6095 87.2935 63.6269 86.8526 63.6406 86.3467C63.6542 85.8409 63.6553 85.3494 63.6366 85.2598C63.5874 85.0138 63.319 84.8868 62.8294 84.8867L62.4097 84.8848L63.0749 84.4358C63.4455 84.1918 63.7989 83.9312 63.8753 83.8581C64.1648 83.5622 64.0971 82.6751 63.7295 81.9491C63.3551 81.2002 63.0192 81.0669 61.9212 81.199C61.0528 81.3 60.7438 81.3992 60.2114 81.7276C59.8268 81.96 59.7347 82.0425 59.5062 82.3688C59.3623 82.5768 59.1701 82.8812 59.0752 83.0529C58.9684 83.2519 58.7917 83.4527 58.5943 83.6191C58.1733 83.9676 58.1147 84.0702 57.946 84.7774C57.8683 85.1067 57.7816 85.3743 57.7571 85.3689C57.6917 85.3546 57.5813 84.8901 57.5579 84.5343C57.5308 84.0666 57.8937 82.8588 58.2305 82.2654C58.3848 82.004 58.7172 81.5208 58.9673 81.1949C59.2173 80.869 59.457 80.5023 59.4985 80.3831C59.5955 80.0622 59.5499 79.693 59.3594 79.3777C59.154 79.0378 58.0215 77.8795 57.7122 77.6965C57.0938 77.3305 56.7909 77.6277 56.9143 78.5013C57.0295 79.3261 56.9034 80.4446 56.6047 81.1832C56.386 81.7255 56.328 81.7 56.2665 81.0109C56.2019 80.2699 56.0259 79.4617 55.8838 79.2853C55.7908 79.1666 55.7611 79.1644 55.6186 79.2573C55.5332 79.3156 55.24 79.6406 54.961 79.9773C54.6871 80.3109 54.4556 80.5852 54.4392 80.5817C54.4258 80.583 54.5474 80.3146 54.7121 79.9999C55.318 78.8067 55.3724 78.1687 54.9473 77.242C54.8178 76.9571 54.6846 76.7014 54.6482 76.6763C54.5158 76.5747 53.2867 77.0886 52.0845 77.7409C51.6649 77.9742 51.3062 78.1439 51.2914 78.1192C51.2437 78.0404 51.4864 77.6787 51.8678 77.2532C52.1632 76.9201 54.2016 74.9624 54.3315 74.8839C54.4199 74.8305 54.172 74.3145 53.6453 73.4425L53.047 72.4523L52.5605 72.5513C52.2946 72.6043 51.8637 72.6427 51.6022 72.6326L51.1252 72.6182L50.5794 72.9479C49.9898 73.3108 49.5073 73.757 49.0576 74.3514C48.8454 74.6343 48.7682 74.6944 48.3843 74.8927C47.935 75.1238 46.8878 75.4807 46.0314 75.6955C45.6867 75.7827 45.3213 75.9295 44.8067 76.1933C43.8792 76.6662 43.6615 76.717 43.1495 76.5624C42.6182 76.3992 42.4436 76.4509 41.5898 77.034C41.2245 77.2749 40.7463 77.6108 40.5161 77.77C39.793 78.2876 39.7194 78.2715 38.4028 77.3723L37.6468 76.8608L37.2397 76.8915C36.846 76.921 36.0772 77.1164 34.308 77.6406C33.078 78.0004 33.0327 78.0076 32.6982 77.8062C32.3391 77.5995 31.6722 77.0005 31.5323 76.7689C31.3745 76.5078 30.8046 76.4218 29.4934 76.4474C28.0855 76.4775 27.425 76.4529 27.2481 76.3715C26.5153 76.0275 26.2075 75.8234 26.0706 75.5968C25.9902 75.4638 25.8408 75.2985 25.7404 75.2381C25.4557 75.0605 24.1383 74.841 23.1055 74.7992C22.0995 74.7547 21.8231 74.6729 21.2521 74.2445C20.76 73.8761 20.1093 73.2336 19.7054 72.7178C19.1215 71.9744 19.1906 71.9596 20.9964 72.4354C22.7227 72.8854 22.7873 72.8867 23.6867 72.5786C27.2629 71.3461 29.0135 70.7794 30.8845 70.2475C32.8803 69.6874 34.9666 69.0187 37.6664 68.0736C39.1563 67.5568 39.0753 67.5989 39.335 67.2067C39.6073 66.8001 39.8643 65.9455 39.9024 65.3509C39.9367 64.6913 39.8438 64.6197 39.0296 64.6813C38.7295 64.7012 38.4657 64.6991 38.4375 64.6759C38.4062 64.6477 38.5109 64.5038 38.6868 64.337C39.2999 63.7312 41.2113 61.0702 42.3583 59.2341C43.3398 57.6526 43.4502 57.3775 43.1774 57.1725C42.8763 56.9442 42.1674 56.8748 40.8399 56.9439C39.9224 56.9871 39.5538 56.8937 39.0021 56.4739L38.5576 56.1372L37.0602 55.8314C34.9038 55.3858 34.2647 55.1264 33.1628 54.2186C31.313 52.7069 27.8103 48.9055 26.3411 46.8141C25.8657 46.133 25.7594 46.0157 25.5141 45.868C25.1432 45.6416 24.5345 45.4444 23.1917 45.1125C21.8704 44.781 21.4974 44.6567 20.6969 44.2594C19.1263 43.4801 16.1925 42.7577 13.3304 42.4359C11.9818 42.2823 10.8026 42.0802 9.21832 41.7126C6.4592 41.0797 3.36171 40.0864 2.44739 39.536C1.91813 39.2236 2.02196 39.0197 3.05259 38.3769C3.44984 38.1302 4.02013 37.8058 4.32089 37.6577ZM54.8919 71.748C54.609 71.9256 54.609 71.9256 54.7087 72.0671C55.097 72.6395 55.6298 73.5683 55.7951 73.9594C55.8986 74.2129 56.0132 74.4261 56.0407 74.4364C56.0704 74.4386 56.2685 74.1441 56.4866 73.7769C57.109 72.7285 57.2685 72.5111 57.5966 72.2321C58.2254 71.7111 58.2038 71.6165 57.3677 71.2542C56.4014 70.8293 56.2001 70.8366 55.5958 71.269C55.3634 71.4362 55.0448 71.6489 54.8919 71.748Z" fill="black"/>
</g>
<defs>
<clipPath id="clip0_24_26">
<rect width="77.7304" height="73.3267" fill="white" transform="matrix(-0.855927 0.517097 0.517097 0.855927 66.5316 0)"/>
</clipPath>
</defs>
</svg>
