<svg width="2228" height="151" viewBox="0 0 2228 151" fill="none" xmlns="http://www.w3.org/2000/svg">
<path d="M149.419 4.53111C134.489 19.9048 111.939 31.2327 86.2563 36.4921C78.0087 38.1913 74.5634 38.4341 57.5461 38.4341C40.6332 38.4341 37.188 38.1913 29.8799 36.573C6.49418 31.3945 -10.8363 23.3841 -26.0788 10.6806C-33.2825 4.61202 -33.3869 4.53111 -32.7605 7.28219C-32.1341 10.1951 -23.3644 58.5816 -20.128 77.5155L-18.2488 88.358L-13.0288 91.5136C12.7582 107.454 63.497 111.985 101.812 101.79C121.231 96.6921 139.814 86.3351 150.672 74.6835L153.804 71.2851L159.754 77.03C181.261 97.9867 222.395 109.962 261.963 106.806C283.991 105.026 303.619 99.8477 319.488 91.5136C326.691 87.7106 339.324 78.2437 342.142 74.5217C343.187 73.1461 344.335 72.0133 344.753 72.0133C345.17 72.0133 347.154 73.7125 349.137 75.8163C351.225 78.001 354.984 81.3184 357.594 83.3413C360.204 85.2832 362.772 87.5944 362.772 87.5944C362.772 87.5944 373.776 95.3166 381.71 98.2295C414.075 110.447 463.456 110.447 495.507 98.3913C510.541 92.8082 515.343 89.5717 532.465 73.6316L534.657 71.6088L536.954 74.0362C541.861 79.3765 556.686 89.8144 565.038 93.7792C590.929 106.078 623.398 110.124 656.806 105.188C684.368 101.061 706.71 90.7045 722.892 74.4408L725.711 71.6088L727.486 73.6316C731.766 78.4865 744.712 87.8725 752.855 92.1609C787.62 110.205 843.057 112.551 881.79 97.6631C895.571 92.4037 909.978 83.1795 918.643 74.0362L920.94 71.6088L924.281 74.8453C943.073 93.2128 970.739 104.217 1004.98 106.887C1033.8 109.153 1065.64 103.003 1087.46 91.0281C1094.14 87.387 1105.21 78.9719 1109.17 74.6026C1110.43 73.2271 1111.78 72.0133 1112.1 72.0133C1112.52 72.0133 1114.08 73.4698 1115.65 75.2499C1119.93 80.0238 1132.04 88.6007 1140.49 92.8082C1180.48 112.956 1244.58 111.823 1279.56 90.4617L1286.86 86.0115L1294.8 43.208C1299.18 19.662 1302.73 0.323586 1302.63 0.242672C1302.42 0.0808437 1299.39 2.91283 1295.74 6.47304C1283.21 18.9338 1264.11 29.2099 1244.16 34.4693C1221.93 40.376 1193.11 40.376 1170.88 34.4693C1150.41 29.1289 1128.07 16.83 1116.59 4.69294C1114.5 2.58917 1112.52 0.809066 1112.1 0.809066C1111.68 0.809066 1109.8 2.34643 1108.03 4.28837C1102.6 10.1951 1089.96 19.3384 1080.88 24.0314C1070.55 29.3717 1057.5 33.9029 1045.18 36.4112C1032.75 38.9195 1008.64 39.5669 995.795 37.7058C969.069 33.822 943.699 22.0085 927.1 5.90664L921.044 -7.52508e-05L918.434 2.67009L915.72 5.25934L914.942 5.90664L914.073 6.78909L911.901 8.52684C905.741 15 892.126 20.3902 883.043 24.9214C873.855 29.5335 860.283 34.1456 848.695 36.573C836.271 39.1623 809.545 39.2432 797.225 36.6539C774.57 31.88 764.213 32.7684 748.553 19.8222C742.08 14.4819 738.126 12.0023 735.954 9.83015C734.651 9.39571 734.689 8.90046 734.48 8.90046C734.272 8.90046 732.184 6.87761 729.782 4.4502L725.502 0.0808382L721.013 4.69294C704.726 21.4421 679.566 33.2556 650.647 37.7058C637.283 39.7287 612.645 38.9195 599.908 36.0875C587.171 33.1746 571.406 27.1061 561.28 21.2803C552.51 16.2636 540.399 6.7967 537.163 2.50826C536.119 1.13272 534.971 -7.52508e-05 534.657 -7.52508e-05C534.344 -7.52508e-05 532.256 2.10369 529.959 4.53111C524.739 10.1951 512.838 19.0147 504.486 23.3841C494.881 28.4816 480.16 33.6601 468.363 36.1685C458.863 38.1913 456.252 38.4341 440.175 38.4341C421.278 38.4341 414.075 37.544 400.711 33.6601C380.666 27.8343 361.143 16.83 349.451 4.77385L344.753 -7.52508e-05L341.412 3.80288C332.433 13.9171 312.075 26.3779 295.789 31.6373C280.128 36.7349 271.463 38.1104 253.819 38.5959C234.505 39.1623 224.483 37.9486 208.405 33.0937C187.003 26.7015 168.942 15.8591 155.37 1.37547C154.117 -0.0809849 153.699 0.161756 149.419 4.53111Z" fill="#61758B"/>
<path d="M149.419 85.3365C134.489 100.71 111.939 112.038 86.2563 117.298C78.0087 118.997 74.5634 119.239 57.5461 119.239C40.6332 119.239 37.188 118.997 29.8799 117.378C6.49418 112.2 -10.8363 104.189 -26.0788 91.486C-33.2825 85.4174 -33.3869 85.3365 -32.7605 88.0876C-32.1341 91.0005 -23.3644 139.387 -20.128 158.321L-18.2488 169.163L-13.0288 172.319C12.7582 188.259 63.497 192.79 101.812 182.595C121.231 177.498 139.814 167.141 150.672 155.489L153.804 152.091L159.754 157.835C181.261 178.792 222.395 190.767 261.963 187.612C283.991 185.832 303.619 180.653 319.488 172.319C326.691 168.516 339.324 159.049 342.142 155.327C343.187 153.952 344.335 152.819 344.753 152.819C345.17 152.819 347.154 154.518 349.137 156.622C351.225 158.806 354.984 162.124 357.594 164.147C360.204 166.089 362.772 168.4 362.772 168.4C362.772 168.4 373.776 176.122 381.71 179.035C414.075 191.253 463.456 191.253 495.507 179.197C510.541 173.614 515.343 170.377 532.465 154.437L534.657 152.414L536.954 154.842C541.861 160.182 556.686 170.62 565.038 174.585C590.929 186.884 623.398 190.929 656.806 185.993C684.368 181.867 706.71 171.51 722.892 155.246L725.711 152.414L727.486 154.437C731.766 159.292 744.712 168.678 752.855 172.966C787.62 191.01 843.057 193.357 881.79 178.468C895.571 173.209 909.978 163.985 918.643 154.842L920.94 152.414L924.281 155.651C943.073 174.018 970.739 185.023 1004.98 187.693C1033.8 189.958 1065.64 183.809 1087.46 171.834C1094.14 168.192 1105.21 159.777 1109.17 155.408C1110.43 154.032 1111.78 152.819 1112.1 152.819C1112.52 152.819 1114.08 154.275 1115.65 156.055C1119.93 160.829 1132.04 169.406 1140.49 173.614C1180.48 193.761 1244.58 192.628 1279.56 171.267L1286.86 166.817L1294.8 124.013C1299.18 100.467 1302.73 81.129 1302.63 81.0481C1302.42 80.8863 1299.39 83.7183 1295.74 87.2785C1283.21 99.7392 1264.11 110.015 1244.16 115.275C1221.93 121.181 1193.11 121.181 1170.88 115.275C1150.41 109.934 1128.07 97.6354 1116.59 85.4984C1114.5 83.3946 1112.52 81.6145 1112.1 81.6145C1111.68 81.6145 1109.8 83.1519 1108.03 85.0938C1102.6 91.0005 1089.96 100.144 1080.88 104.837C1070.55 110.177 1057.5 114.708 1045.18 117.217C1032.75 119.725 1008.64 120.372 995.795 118.511C969.069 114.627 943.699 102.814 927.1 86.7121L921.044 80.8053L918.434 83.4755L915.72 86.0648L914.942 86.7121L914.073 87.5945L911.901 89.3323C905.741 95.8054 892.126 101.196 883.043 105.727C873.855 110.339 860.283 114.951 848.695 117.378C836.271 119.968 809.545 120.049 797.225 117.459C774.57 112.685 764.213 113.574 748.553 100.628C742.08 95.2873 738.126 92.8078 735.954 90.6356C734.651 90.2011 734.689 89.7059 734.48 89.7059C734.272 89.7059 732.184 87.683 729.782 85.2556L725.502 80.8863L721.013 85.4984C704.726 102.248 679.566 114.061 650.647 118.511C637.283 120.534 612.645 119.725 599.908 116.893C587.171 113.98 571.406 107.912 561.28 102.086C552.51 97.069 540.399 87.6021 537.163 83.3137C536.119 81.9381 534.971 80.8053 534.657 80.8053C534.344 80.8053 532.256 82.9091 529.959 85.3365C524.739 91.0005 512.838 99.8201 504.486 104.189C494.881 109.287 480.16 114.466 468.363 116.974C458.863 118.997 456.252 119.239 440.175 119.239C421.278 119.239 414.075 118.349 400.711 114.466C380.666 108.64 361.143 97.6354 349.451 85.5793L344.753 80.8053L341.412 84.6083C332.433 94.7225 312.075 107.183 295.789 112.443C280.128 117.54 271.463 118.916 253.819 119.401C234.505 119.968 224.483 118.754 208.405 113.899C187.003 107.507 168.942 96.6645 155.37 82.1809C154.117 80.7244 153.699 80.9672 149.419 85.3365Z" fill="#61758B"/>
<path d="M1107.79 4.53111C1092.86 19.9048 1070.31 31.2327 1044.62 36.4921C1036.38 38.1913 1032.93 38.4341 1015.91 38.4341C999.002 38.4341 995.557 38.1913 988.249 36.573C964.863 31.3945 947.532 23.3841 932.29 10.6806C925.086 4.61202 924.982 4.53111 925.608 7.28219C926.235 10.1951 935.004 58.5816 938.241 77.5155L940.12 88.358L945.34 91.5136C971.127 107.454 1021.87 111.985 1060.18 101.79C1079.6 96.6921 1098.18 86.3351 1109.04 74.6835L1112.17 71.2851L1118.12 77.03C1139.63 97.9867 1180.76 109.962 1220.33 106.806C1242.36 105.026 1261.99 99.8477 1277.86 91.5136C1285.06 87.7106 1297.69 78.2437 1300.51 74.5217C1301.56 73.1461 1302.7 72.0133 1303.12 72.0133C1303.54 72.0133 1305.52 73.7125 1307.51 75.8163C1309.59 78.001 1313.35 81.3184 1315.96 83.3413C1318.57 85.2832 1321.14 87.5944 1321.14 87.5944C1321.14 87.5944 1332.14 95.3166 1340.08 98.2295C1372.44 110.447 1421.82 110.447 1453.88 98.3913C1468.91 92.8082 1473.71 89.5717 1490.83 73.6316L1493.03 71.6088L1495.32 74.0362C1500.23 79.3765 1515.05 89.8144 1523.41 93.7792C1549.3 106.078 1581.77 110.124 1615.17 105.188C1642.74 101.061 1665.08 90.7045 1681.26 74.4408L1684.08 71.6088L1685.85 73.6316C1690.13 78.4865 1703.08 87.8725 1711.22 92.1609C1745.99 110.205 1801.43 112.551 1840.16 97.6631C1853.94 92.4037 1868.35 83.1795 1877.01 74.0362L1879.31 71.6088L1882.65 74.8453C1901.44 93.2128 1929.11 104.217 1963.35 106.887C1992.17 109.153 2024.01 103.003 2045.83 91.0281C2052.51 87.387 2063.58 78.9719 2067.54 74.6026C2068.8 73.2271 2070.15 72.0133 2070.47 72.0133C2070.88 72.0133 2072.45 73.4698 2074.02 75.2499C2078.3 80.0238 2090.41 88.6007 2098.86 92.8082C2138.85 112.956 2202.95 111.823 2237.93 90.4617L2245.23 86.0115L2253.17 43.208C2257.55 19.662 2261.1 0.323586 2261 0.242672C2260.79 0.0808437 2257.76 2.91283 2254.11 6.47304C2241.58 18.9338 2222.47 29.2099 2202.53 34.4693C2180.3 40.376 2151.48 40.376 2129.24 34.4693C2108.78 29.1289 2086.44 16.83 2074.96 4.69294C2072.87 2.58917 2070.88 0.809066 2070.47 0.809066C2070.05 0.809066 2068.17 2.34643 2066.39 4.28837C2060.97 10.1951 2048.33 19.3384 2039.25 24.0314C2028.91 29.3717 2015.86 33.9029 2003.55 36.4112C1991.12 38.9195 1967.01 39.5669 1954.16 37.7058C1927.44 33.822 1902.07 22.0085 1885.47 5.90664L1879.41 -7.52508e-05L1876.8 2.67009L1874.09 5.25934L1873.31 5.90664L1872.44 6.78909L1870.27 8.52684C1864.11 15 1850.49 20.3902 1841.41 24.9214C1832.22 29.5335 1818.65 34.1456 1807.06 36.573C1794.64 39.1623 1767.91 39.2432 1755.59 36.6539C1732.94 31.88 1722.58 32.7684 1706.92 19.8222C1700.45 14.4819 1696.49 12.0023 1694.32 9.83015C1693.02 9.39571 1693.06 8.90046 1692.85 8.90046C1692.64 8.90046 1690.55 6.87761 1688.15 4.4502L1683.87 0.0808382L1679.38 4.69294C1663.09 21.4421 1637.93 33.2556 1609.02 37.7058C1595.65 39.7287 1571.01 38.9195 1558.28 36.0875C1545.54 33.1746 1529.78 27.1061 1519.65 21.2803C1510.88 16.2636 1498.77 6.7967 1495.53 2.50826C1494.49 1.13272 1493.34 -7.52508e-05 1493.03 -7.52508e-05C1492.71 -7.52508e-05 1490.62 2.10369 1488.33 4.53111C1483.11 10.1951 1471.21 19.0147 1462.85 23.3841C1453.25 28.4816 1438.53 33.6601 1426.73 36.1685C1417.23 38.1913 1414.62 38.4341 1398.54 38.4341C1379.65 38.4341 1372.44 37.544 1359.08 33.6601C1339.04 27.8343 1319.51 16.83 1307.82 4.77385L1303.12 -7.52508e-05L1299.78 3.80288C1290.8 13.9171 1270.44 26.3779 1254.16 31.6373C1238.5 36.7349 1229.83 38.1104 1212.19 38.5959C1192.87 39.1623 1182.85 37.9486 1166.77 33.0937C1145.37 26.7015 1127.31 15.8591 1113.74 1.37547C1112.49 -0.0809849 1112.07 0.161756 1107.79 4.53111Z" fill="#61758B"/>
<path d="M1107.79 85.3365C1092.86 100.71 1070.31 112.038 1044.62 117.298C1036.38 118.997 1032.93 119.239 1015.91 119.239C999.002 119.239 995.557 118.997 988.249 117.378C964.863 112.2 947.532 104.189 932.29 91.486C925.086 85.4174 924.982 85.3365 925.608 88.0876C926.235 91.0005 935.004 139.387 938.241 158.321L940.12 169.163L945.34 172.319C971.127 188.259 1021.87 192.79 1060.18 182.595C1079.6 177.498 1098.18 167.141 1109.04 155.489L1112.17 152.091L1118.12 157.835C1139.63 178.792 1180.76 190.767 1220.33 187.612C1242.36 185.832 1261.99 180.653 1277.86 172.319C1285.06 168.516 1297.69 159.049 1300.51 155.327C1301.56 153.952 1302.7 152.819 1303.12 152.819C1303.54 152.819 1305.52 154.518 1307.51 156.622C1309.59 158.806 1313.35 162.124 1315.96 164.147C1318.57 166.089 1321.14 168.4 1321.14 168.4C1321.14 168.4 1332.14 176.122 1340.08 179.035C1372.44 191.253 1421.82 191.253 1453.88 179.197C1468.91 173.614 1473.71 170.377 1490.83 154.437L1493.03 152.414L1495.32 154.842C1500.23 160.182 1515.05 170.62 1523.41 174.585C1549.3 186.884 1581.77 190.929 1615.17 185.993C1642.74 181.867 1665.08 171.51 1681.26 155.246L1684.08 152.414L1685.85 154.437C1690.13 159.292 1703.08 168.678 1711.22 172.966C1745.99 191.01 1801.43 193.357 1840.16 178.468C1853.94 173.209 1868.35 163.985 1877.01 154.842L1879.31 152.414L1882.65 155.651C1901.44 174.018 1929.11 185.023 1963.35 187.693C1992.17 189.958 2024.01 183.809 2045.83 171.834C2052.51 168.192 2063.58 159.777 2067.54 155.408C2068.8 154.032 2070.15 152.819 2070.47 152.819C2070.88 152.819 2072.45 154.275 2074.02 156.055C2078.3 160.829 2090.41 169.406 2098.86 173.614C2138.85 193.761 2202.95 192.628 2237.93 171.267L2245.23 166.817L2253.17 124.013C2257.55 100.467 2261.1 81.129 2261 81.0481C2260.79 80.8863 2257.76 83.7183 2254.11 87.2785C2241.58 99.7392 2222.47 110.015 2202.53 115.275C2180.3 121.181 2151.48 121.181 2129.24 115.275C2108.78 109.934 2086.44 97.6354 2074.96 85.4984C2072.87 83.3946 2070.88 81.6145 2070.47 81.6145C2070.05 81.6145 2068.17 83.1519 2066.39 85.0938C2060.97 91.0005 2048.33 100.144 2039.25 104.837C2028.91 110.177 2015.86 114.708 2003.55 117.217C1991.12 119.725 1967.01 120.372 1954.16 118.511C1927.44 114.627 1902.07 102.814 1885.47 86.7121L1879.41 80.8053L1876.8 83.4755L1874.09 86.0648L1873.31 86.7121L1872.44 87.5945L1870.27 89.3323C1864.11 95.8054 1850.49 101.196 1841.41 105.727C1832.22 110.339 1818.65 114.951 1807.06 117.378C1794.64 119.968 1767.91 120.049 1755.59 117.459C1732.94 112.685 1722.58 113.574 1706.92 100.628C1700.45 95.2873 1696.49 92.8078 1694.32 90.6356C1693.02 90.2011 1693.06 89.7059 1692.85 89.7059C1692.64 89.7059 1690.55 87.683 1688.15 85.2556L1683.87 80.8863L1679.38 85.4984C1663.09 102.248 1637.93 114.061 1609.02 118.511C1595.65 120.534 1571.01 119.725 1558.28 116.893C1545.54 113.98 1529.78 107.912 1519.65 102.086C1510.88 97.069 1498.77 87.6021 1495.53 83.3137C1494.49 81.9381 1493.34 80.8053 1493.03 80.8053C1492.71 80.8053 1490.62 82.9091 1488.33 85.3365C1483.11 91.0005 1471.21 99.8201 1462.85 104.189C1453.25 109.287 1438.53 114.466 1426.73 116.974C1417.23 118.997 1414.62 119.239 1398.54 119.239C1379.65 119.239 1372.44 118.349 1359.08 114.466C1339.04 108.64 1319.51 97.6354 1307.82 85.5793L1303.12 80.8053L1299.78 84.6083C1290.8 94.7225 1270.44 107.183 1254.16 112.443C1238.5 117.54 1229.83 118.916 1212.19 119.401C1192.87 119.968 1182.85 118.754 1166.77 113.899C1145.37 107.507 1127.31 96.6645 1113.74 82.1809C1112.49 80.7244 1112.07 80.9672 1107.79 85.3365Z" fill="#61758B"/>
</svg>
