<svg width="1440" height="126" viewBox="0 0 1440 126" fill="none" xmlns="http://www.w3.org/2000/svg">
<path fill-rule="evenodd" clip-rule="evenodd" d="M392.359 1.10222C393.248 1.30888 393.959 1.17111 393.959 0.757774C393.959 0.344443 394.226 0 394.493 0C394.759 0 394.759 0.757774 394.493 1.65333C393.781 3.92665 401.159 10.6777 411.025 16.8088C441.246 35.6154 482.311 38.922 516.887 25.4199C529.686 20.4599 540.975 13.4333 548.619 5.64886L553.418 0.757774L563.818 8.88663C578.395 20.3221 590.661 26.3843 607.016 30.311C614.927 32.171 627.637 33.7554 635.281 33.7554C648.258 33.7554 667.102 30.2421 678.568 25.7643C690.479 21.0799 703.723 12.7444 710.833 5.37331C713.144 3.0311 715.722 1.03333 716.611 0.895551C717.677 0.757774 719.277 1.7911 721.411 3.99554C725.944 8.81774 737.41 17.0844 744.61 20.7355C779.808 38.7843 824.428 37.8887 858.115 18.4621C864.426 14.8799 875.537 6.06219 878.114 2.68665C879.003 1.58444 879.892 0.688886 880.159 0.688886C880.514 0.688886 882.025 2.06666 883.625 3.78887C890.914 11.6422 904.78 20.4599 917.668 25.5577C959.533 41.9531 1010.73 32.791 1039 3.78887C1043 -0.275554 1043.08 -0.275554 1042.55 2.06666C1042.02 4.2022 1032.6 54.422 1030.29 67.5108C1029.22 73.4352 1027.89 74.8819 1019.35 79.3596C1002.64 88.2463 982.11 92.1729 956.6 91.4151C926.201 90.5196 900.513 81.1507 883.981 64.9619L880.425 61.4486L875.181 66.3397C856.604 83.6307 828.606 92.3796 794.385 91.4151C777.497 91.0018 766.475 88.9351 752.609 83.6996C739.01 78.6019 726.922 71.093 719.633 63.1019L717.766 61.1042L713.678 65.2375C700.256 78.7396 678.479 87.9707 652.88 90.864C644.614 91.8285 625.86 91.8285 617.682 90.864C593.239 88.0396 573.24 79.7041 558.929 66.4086L553.685 61.4486L548.974 66.0641C537.597 77.3619 519.109 85.8352 497.777 89.624C487.377 91.484 467.378 92.104 456.979 91.0018C431.557 88.1774 409.87 79.2219 395.648 65.5819L390.937 61.1042L389.515 62.7575C388.804 63.653 386.671 65.7197 384.893 67.373C383.026 69.0263 381.515 70.8863 381.515 71.5752C381.515 74.193 370.671 80.5307 359.028 84.7329C345.339 89.624 331.207 91.6218 311.03 91.6218C290.32 91.6218 275.742 89.4174 261.876 84.3196C253.077 81.0818 244.633 76.1908 244.633 74.3308C244.633 73.5041 242.766 71.1619 240.455 69.0952C238.055 67.0286 235.3 64.4108 234.322 63.3086L232.456 61.3108L229.878 63.8597C215.923 78.2574 194.857 87.4885 168.725 90.7262C155.57 92.3107 136.193 91.6907 123.75 89.2107C113.972 87.2818 99.2174 82.253 92.1066 78.4641C86.5069 75.5019 75.7518 67.5108 72.6409 64.0664C71.3076 62.5508 69.8854 61.3108 69.6188 61.3108C69.2632 61.3108 68.3744 62.1375 67.5744 63.2397C64.7301 66.9597 55.3083 74.193 48.9086 77.6374C31.0428 87.2129 11.6659 91.6218 -12.4218 91.6218C-36.243 91.6218 -55.9754 87.3507 -71.2635 78.9463L-76.6855 75.9152L-82.8186 41.9531C-86.1073 23.2154 -89.0405 7.16441 -89.396 6.19997C-89.7516 4.89109 -87.885 6.06219 -81.7519 10.8155C-72.6857 17.911 -60.7751 24.3177 -50.6423 27.5554C-19.7104 37.6132 15.488 34.9954 43.4867 20.6666C50.6863 16.9466 61.0858 9.36884 65.5301 4.54665C67.4855 2.47999 69.3521 0.688886 69.7077 0.688886C69.9743 0.688886 71.6631 2.20443 73.4408 3.99554C75.1296 5.85553 79.8405 9.71329 83.7515 12.6755C118.328 38.302 171.392 40.7131 210.146 18.4621C216.456 14.8799 227.567 6.06219 230.145 2.68665C231.033 1.58444 231.922 0.688886 232.278 0.688886C232.545 0.688886 233.878 1.85999 235.033 3.30665C238.678 7.50885 249.966 15.9133 257.343 19.8399C271.032 27.1421 286.053 31.551 302.586 33.2043C332.807 36.0976 369.605 23.4221 387.826 3.78887C389.959 1.51555 391.115 0.757774 392.359 1.10222ZM9.53251 97.2018C31.3982 92.7241 50.5973 83.0797 63.3078 69.9909C66.9521 66.2709 67.3076 66.0642 68.3742 67.3042C79.9292 79.6353 95.3063 88.8663 113.528 94.3085C127.216 98.4418 135.749 99.4752 152.193 98.993C167.214 98.5796 174.591 97.4085 187.924 93.0685C201.79 88.5908 219.123 77.9819 226.767 69.3709L229.611 66.1331L233.611 70.1975C243.566 80.4619 260.187 89.8308 277.253 94.7908C288.631 98.0974 294.764 98.8552 310.852 98.8552C324.54 98.8552 326.762 98.6485 334.851 96.9263C344.895 94.7908 357.427 90.3819 365.605 86.0419C372.716 82.3219 382.848 74.8131 387.293 69.9909C389.248 67.9242 391.026 66.1331 391.292 66.1331C391.559 66.1331 392.537 67.0975 393.426 68.2687C396.181 71.9198 406.492 79.9797 413.958 84.2508C422.58 89.2108 436.001 94.3774 446.845 96.8574C457.689 99.2685 478.666 99.9574 490.043 98.2352C514.664 94.4463 536.086 84.3886 549.952 70.1286L553.774 66.202L557.418 69.922C559.462 71.9886 561.24 73.7109 561.418 73.7109C561.596 73.7109 561.507 72.8842 561.24 71.782C560.885 70.1975 561.773 70.7486 567.284 75.2953C580.617 86.3175 595.55 93.2752 614.838 97.3396C625.326 99.5441 648.081 99.4752 658.658 97.2707C668.524 95.2041 680.079 91.2774 687.901 87.3508C695.634 83.493 706.656 75.502 711.9 69.9909L715.722 65.9953V68.2687V70.6109L718.033 68.4064L720.255 66.1331L725.41 71.162C739.543 84.8708 761.142 94.9285 783.896 98.2352C794.829 99.8196 815.362 99.2685 825.939 97.133C836.427 94.9974 847.538 91.1397 856.337 86.593C864.07 82.5975 874.825 74.8131 879.447 69.7842C880.958 68.1309 882.558 66.822 882.914 66.822C883.27 66.822 884.958 68.3375 886.736 70.1286C896.513 80.4619 915.535 90.933 932.956 95.4796C951.889 100.509 976.421 100.509 995.353 95.4796C1012.33 91.0019 1028.6 82.253 1039.26 71.6442C1042.37 68.6131 1044.95 66.202 1045.13 66.3398C1045.22 66.4087 1042.2 82.873 1038.46 102.92L1031.71 139.362L1025.49 143.151C995.709 161.337 941.133 162.302 907.091 145.148C899.891 141.566 889.58 134.264 885.936 130.199C884.603 128.684 883.27 127.444 882.914 127.444C882.647 127.444 881.492 128.477 880.425 129.648C877.048 133.368 867.626 140.533 861.937 143.633C843.36 153.828 816.25 159.064 791.718 157.135C762.564 154.862 739.01 145.493 723.01 129.855L720.166 127.099L718.211 129.166C710.833 136.951 698.567 144.804 686.834 149.282C653.858 161.957 606.66 159.959 577.062 144.597C570.129 140.946 559.107 132.955 555.463 128.822L553.952 127.099L551.552 129.511C537.775 143.357 518.753 152.175 495.288 155.688C466.844 159.89 439.201 156.446 417.158 145.975C410.047 142.599 397.426 133.713 393.248 129.166L391.292 127.099L389.426 128.822C374.849 142.393 370.76 145.148 357.961 149.902C330.673 160.166 288.631 160.166 261.076 149.764C254.321 147.284 244.633 141.979 244.633 140.877C244.633 140.464 242.766 138.742 240.544 137.088C238.322 135.366 235.122 132.542 233.344 130.682C231.655 128.891 229.967 127.444 229.611 127.444C229.256 127.444 228.278 128.408 227.389 129.579C224.989 132.748 214.234 140.808 208.101 144.046C194.591 151.142 177.88 155.55 159.126 157.066C125.438 159.753 90.4176 149.557 72.1074 131.715L67.0409 126.824L64.3744 129.717C55.1304 139.637 39.3089 148.455 22.7763 152.795C-9.84436 161.475 -53.0423 157.617 -74.9969 144.046L-79.4411 141.359L-81.041 132.128C-83.7965 116.008 -91.2628 74.8131 -91.7961 72.3331C-92.3294 69.9909 -92.2405 70.0598 -86.1075 75.2264C-73.1303 86.0419 -58.3754 92.8619 -38.4652 97.2707C-32.2433 98.6485 -29.3101 98.8552 -14.9108 98.8552C-0.422577 98.8552 2.51062 98.6485 9.53251 97.2018Z" fill="#61758B"/>
<path fill-rule="evenodd" clip-rule="evenodd" d="M878.359 1.10222C879.248 1.30888 879.959 1.17111 879.959 0.757774C879.959 0.344443 880.226 0 880.493 0C880.759 0 880.759 0.757774 880.493 1.65333C879.781 3.92665 887.159 10.6777 897.025 16.8088C927.246 35.6154 968.311 38.922 1002.89 25.4199C1015.69 20.4599 1026.97 13.4333 1034.62 5.64886L1039.42 0.757774L1049.82 8.88663C1064.4 20.3221 1076.66 26.3843 1093.02 30.311C1100.93 32.171 1113.64 33.7554 1121.28 33.7554C1134.26 33.7554 1153.1 30.2421 1164.57 25.7643C1176.48 21.0799 1189.72 12.7444 1196.83 5.37331C1199.14 3.0311 1201.72 1.03333 1202.61 0.895551C1203.68 0.757774 1205.28 1.7911 1207.41 3.99554C1211.94 8.81774 1223.41 17.0844 1230.61 20.7355C1265.81 38.7843 1310.43 37.8887 1344.12 18.4621C1350.43 14.8799 1361.54 6.06219 1364.11 2.68665C1365 1.58444 1365.89 0.688886 1366.16 0.688886C1366.51 0.688886 1368.03 2.06666 1369.63 3.78887C1376.91 11.6422 1390.78 20.4599 1403.67 25.5577C1445.53 41.9531 1496.73 32.791 1525 3.78887C1529 -0.275554 1529.08 -0.275554 1528.55 2.06666C1528.02 4.2022 1518.6 54.422 1516.29 67.5108C1515.22 73.4352 1513.89 74.8819 1505.35 79.3596C1488.64 88.2463 1468.11 92.1729 1442.6 91.4151C1412.2 90.5196 1386.51 81.1507 1369.98 64.9619L1366.43 61.4486L1361.18 66.3397C1342.6 83.6307 1314.61 92.3796 1280.39 91.4151C1263.5 91.0018 1252.48 88.9351 1238.61 83.6996C1225.01 78.6019 1212.92 71.093 1205.63 63.1019L1203.77 61.1042L1199.68 65.2375C1186.26 78.7396 1164.48 87.9707 1138.88 90.864C1130.61 91.8285 1111.86 91.8285 1103.68 90.864C1079.24 88.0396 1059.24 79.7041 1044.93 66.4086L1039.69 61.4486L1034.97 66.0641C1023.6 77.3619 1005.11 85.8352 983.777 89.624C973.377 91.484 953.378 92.104 942.979 91.0018C917.557 88.1774 895.87 79.2219 881.648 65.5819L876.937 61.1042L875.515 62.7575C874.804 63.653 872.671 65.7197 870.893 67.373C869.026 69.0263 867.515 70.8863 867.515 71.5752C867.515 74.193 856.671 80.5307 845.028 84.7329C831.339 89.624 817.207 91.6218 797.03 91.6218C776.32 91.6218 761.742 89.4174 747.876 84.3196C739.077 81.0818 730.633 76.1908 730.633 74.3308C730.633 73.5041 728.766 71.1619 726.455 69.0952C724.055 67.0286 721.3 64.4108 720.322 63.3086L718.456 61.3108L715.878 63.8597C701.923 78.2574 680.857 87.4885 654.725 90.7262C641.57 92.3107 622.193 91.6907 609.75 89.2107C599.972 87.2818 585.217 82.253 578.107 78.4641C572.507 75.5019 561.752 67.5108 558.641 64.0664C557.308 62.5508 555.885 61.3108 555.619 61.3108C555.263 61.3108 554.374 62.1375 553.574 63.2397C550.73 66.9597 541.308 74.193 534.909 77.6374C517.043 87.2129 497.666 91.6218 473.578 91.6218C449.757 91.6218 430.025 87.3507 414.736 78.9463L409.314 75.9152L403.181 41.9531C399.893 23.2154 396.96 7.16441 396.604 6.19997C396.248 4.89109 398.115 6.06219 404.248 10.8155C413.314 17.911 425.225 24.3177 435.358 27.5554C466.29 37.6132 501.488 34.9954 529.487 20.6666C536.686 16.9466 547.086 9.36884 551.53 4.54665C553.486 2.47999 555.352 0.688886 555.708 0.688886C555.974 0.688886 557.663 2.20443 559.441 3.99554C561.13 5.85553 565.841 9.71329 569.751 12.6755C604.328 38.302 657.392 40.7131 696.146 18.4621C702.456 14.8799 713.567 6.06219 716.145 2.68665C717.033 1.58444 717.922 0.688886 718.278 0.688886C718.545 0.688886 719.878 1.85999 721.033 3.30665C724.678 7.50885 735.966 15.9133 743.343 19.8399C757.032 27.1421 772.053 31.551 788.586 33.2043C818.807 36.0976 855.605 23.4221 873.826 3.78887C875.959 1.51555 877.115 0.757774 878.359 1.10222ZM495.533 97.2018C517.398 92.7241 536.597 83.0797 549.308 69.9909C552.952 66.2709 553.308 66.0642 554.374 67.3042C565.929 79.6353 581.306 88.8663 599.528 94.3085C613.216 98.4418 621.749 99.4752 638.193 98.993C653.214 98.5796 660.591 97.4085 673.924 93.0685C687.79 88.5908 705.123 77.9819 712.767 69.3709L715.611 66.1331L719.611 70.1975C729.566 80.4619 746.187 89.8308 763.253 94.7908C774.631 98.0974 780.764 98.8552 796.852 98.8552C810.54 98.8552 812.762 98.6485 820.851 96.9263C830.895 94.7908 843.427 90.3819 851.605 86.0419C858.716 82.3219 868.848 74.8131 873.293 69.9909C875.248 67.9242 877.026 66.1331 877.292 66.1331C877.559 66.1331 878.537 67.0975 879.426 68.2687C882.181 71.9198 892.492 79.9797 899.958 84.2508C908.58 89.2108 922.001 94.3774 932.845 96.8574C943.689 99.2685 964.666 99.9574 976.043 98.2352C1000.66 94.4463 1022.09 84.3886 1035.95 70.1286L1039.77 66.202L1043.42 69.922C1045.46 71.9886 1047.24 73.7109 1047.42 73.7109C1047.6 73.7109 1047.51 72.8842 1047.24 71.782C1046.88 70.1975 1047.77 70.7486 1053.28 75.2953C1066.62 86.3175 1081.55 93.2752 1100.84 97.3396C1111.33 99.5441 1134.08 99.4752 1144.66 97.2707C1154.52 95.2041 1166.08 91.2774 1173.9 87.3508C1181.63 83.493 1192.66 75.502 1197.9 69.9909L1201.72 65.9953V68.2687V70.6109L1204.03 68.4064L1206.25 66.1331L1211.41 71.162C1225.54 84.8708 1247.14 94.9285 1269.9 98.2352C1280.83 99.8196 1301.36 99.2685 1311.94 97.133C1322.43 94.9974 1333.54 91.1397 1342.34 86.593C1350.07 82.5975 1360.83 74.8131 1365.45 69.7842C1366.96 68.1309 1368.56 66.822 1368.91 66.822C1369.27 66.822 1370.96 68.3375 1372.74 70.1286C1382.51 80.4619 1401.53 90.933 1418.96 95.4796C1437.89 100.509 1462.42 100.509 1481.35 95.4796C1498.33 91.0019 1514.6 82.253 1525.26 71.6442C1528.37 68.6131 1530.95 66.202 1531.13 66.3398C1531.22 66.4087 1528.2 82.873 1524.46 102.92L1517.71 139.362L1511.49 143.151C1481.71 161.337 1427.13 162.302 1393.09 145.148C1385.89 141.566 1375.58 134.264 1371.94 130.199C1370.6 128.684 1369.27 127.444 1368.91 127.444C1368.65 127.444 1367.49 128.477 1366.43 129.648C1363.05 133.368 1353.63 140.533 1347.94 143.633C1329.36 153.828 1302.25 159.064 1277.72 157.135C1248.56 154.862 1225.01 145.493 1209.01 129.855L1206.17 127.099L1204.21 129.166C1196.83 136.951 1184.57 144.804 1172.83 149.282C1139.86 161.957 1092.66 159.959 1063.06 144.597C1056.13 140.946 1045.11 132.955 1041.46 128.822L1039.95 127.099L1037.55 129.511C1023.77 143.357 1004.75 152.175 981.288 155.688C952.844 159.89 925.201 156.446 903.158 145.975C896.047 142.599 883.426 133.713 879.248 129.166L877.292 127.099L875.426 128.822C860.849 142.393 856.76 145.148 843.961 149.902C816.673 160.166 774.631 160.166 747.076 149.764C740.321 147.284 730.633 141.979 730.633 140.877C730.633 140.464 728.766 138.742 726.544 137.088C724.322 135.366 721.122 132.542 719.344 130.682C717.655 128.891 715.967 127.444 715.611 127.444C715.256 127.444 714.278 128.408 713.389 129.579C710.989 132.748 700.234 140.808 694.101 144.046C680.591 151.142 663.88 155.55 645.126 157.066C611.438 159.753 576.418 149.557 558.107 131.715L553.041 126.824L550.374 129.717C541.13 139.637 525.309 148.455 508.776 152.795C476.156 161.475 432.958 157.617 411.003 144.046L406.559 141.359L404.959 132.128C402.204 116.008 394.737 74.8131 394.204 72.3331C393.671 69.9909 393.759 70.0598 399.893 75.2264C412.87 86.0419 427.625 92.8619 447.535 97.2707C453.757 98.6485 456.69 98.8552 471.089 98.8552C485.577 98.8552 488.511 98.6485 495.533 97.2018Z" fill="#61758B"/>
</svg>
